<svg viewBox="0 0 24 24" xmlns="http://www.w3.org/2000/svg"><rect width="100%" height="100%" rx="3" fill="#00ff00" /><path d="M8.38 22.17Q7.22 22.17 6.13 21.85Q5.05 21.54 4.39 21.03L4.39 21.03L5.16 19.33Q5.79 19.79 6.66 20.07Q7.53 20.35 8.40 20.35L8.40 20.35Q9.36 20.35 9.82 20.06Q10.29 19.77 10.29 19.30L10.29 19.30Q10.29 18.95 10.01 18.72Q9.74 18.49 9.31 18.35Q8.89 18.21 8.16 18.04L8.16 18.04Q7.04 17.77 6.32 17.51Q5.61 17.24 5.10 16.65Q4.59 16.06 4.59 15.08L4.59 15.08Q4.59 14.23 5.05 13.54Q5.51 12.84 6.44 12.44Q7.37 12.03 8.72 12.03L8.72 12.03Q9.66 12.03 10.55 12.26Q11.45 12.48 12.12 12.90L12.12 12.90L11.42 14.62Q10.06 13.85 8.70 13.85L8.70 13.85Q7.75 13.85 7.30 14.16Q6.84 14.47 6.84 14.97L6.84 14.97Q6.84 15.48 7.37 15.72Q7.89 15.97 8.97 16.20L8.97 16.20Q10.09 16.47 10.80 16.74Q11.52 17.00 12.03 17.58Q12.54 18.15 12.54 19.13L12.54 19.13Q12.54 19.97 12.07 20.66Q11.60 21.36 10.66 21.76Q9.73 22.17 8.38 22.17L8.38 22.17ZM14.09 22L14.09 12.20L16.36 12.20L16.36 22L14.09 22Z" fill="#FFF"/></svg>